Coordinates
version=1
nRows=14
nColumns=28
inDegrees=yes

Units are S.I. units (second, meters, Newtons, ...)
Angles are in degrees.

endheader
time	pelvis_tilt	pelvis_list	pelvis_rotation	pelvis_tx	pelvis_ty	pelvis_tz	hip_flexion_r	hip_adduction_r	hip_rotation_r	knee_angle_r	ankle_angle_r	subtalar_angle_r	mtp_angle_r	hip_flexion_l	hip_adduction_l	hip_rotation_l	knee_angle_l	socket_flexion	socket_adduction	socket_rotation	socket_tx	socket_ty	socket_tz	foot_flex	lumbar_extension	lumbar_bending	lumbar_rotation
      0.00000000	      2.97181904	    -10.45304501	    -16.38924167	     -0.85252575	      0.99340920	      0.34553569	    -27.48384795	      7.33165693	     18.29081526	     -8.26490722	      7.11552480	    -12.57743894	     20.65414633	     19.78104813	    -17.53063890	    -11.62899088	     -9.68061293	      0.00000000	      0.00000000	      0.00000000	      0.00000000	      0.00000000	      0.00000000	      2.49728459	    -16.05748069	      5.32885664	     24.00016730
      0.00416667	      2.88831742	    -10.52307439	    -16.36518368	     -0.84744286	      0.99278843	      0.34499224	    -27.53609884	      7.35360445	     18.31502483	     -8.52417917	      6.99803860	    -12.59143409	     20.64819834	     19.59865232	    -17.50462108	    -11.64423745	     -9.57806738	      0.00000000	      0.00000000	      0.00000000	      0.00000000	      0.00000000	      0.00000000	      2.31234741	    -15.93959395	      5.44041385	     24.01523135
      0.00833333	      2.79332941	    -10.61567708	    -16.45087730	     -0.84230600	      0.99218568	      0.34453815	    -27.50942884	      7.36440573	     18.35215975	     -8.94574017	      6.70169732	    -12.63029238	     20.65781996	     19.39737005	    -17.54398607	    -11.76283030	     -9.51679290	      0.00000000	      0.00000000	      0.00000000	      0.00000000	      0.00000000	      0.00000000	      2.04965983	    -15.85485806	      5.56384272	     24.07408254
      0.01250000	      2.71816864	    -10.65111521	    -16.37361718	     -0.83677845	      0.99148238	      0.34392269	    -27.61169773	      7.36118467	     18.41076700	     -9.14274344	      6.64911814	    -12.62616084	     20.65956407	     19.25585199	    -17.46425549	    -11.75944443	     -9.52463138	      0.00000000	      0.00000000	      0.00000000	      0.00000000	      0.00000000	      0.00000000	      1.97424081	    -15.70493442	      5.63537330	     24.07940279
      0.01666667	      2.60580470	    -10.72279324	    -16.42941929	     -0.83123192	      0.99090572	      0.34340758	    -27.54799074	      7.37277517	     18.42543012	     -9.61240665	      6.33754172	    -12.65668573	     20.64795949	     19.00326288	    -17.45825998	    -11.77306614	     -9.31471079	      0.00000000	      0.00000000	      0.00000000	      0.00000000	      0.00000000	      0.00000000	      1.54778630	    -15.58793322	      5.74389390	     24.07918918
      0.02083333	      2.50302875	    -10.76443344	    -16.46116614	     -0.82553153	      0.99029500	      0.34285073	    -27.51257243	      7.35165800	     18.45916400	    -10.03653737	      6.05027995	    -12.68640185	     20.65251230	     18.80008029	    -17.41522007	    -11.81612961	     -9.24444032	      0.00000000	      0.00000000	      0.00000000	      0.00000000	      0.00000000	      0.00000000	      1.30644488	    -15.44616701	      5.82100672	     24.08934175
      0.02500000	      2.40077943	    -10.78516342	    -16.46009915	     -0.81967368	      0.98967850	      0.34227345	    -27.49428305	      7.32397761	     18.51594479	    -10.43357303	      5.80297713	    -12.70927283	     20.65930380	     18.60060433	    -17.33826538	    -11.81419233	     -9.17332346	      0.00000000	      0.00000000	      0.00000000	      0.00000000	      0.00000000	      0.00000000	      1.08543282	    -15.28946959	      5.87721767	     24.09415697
      0.02916667	      2.29234984	    -10.79469155	    -16.48917844	     -0.81376761	      0.98911702	      0.34171002	    -27.42536211	      7.27749705	     18.54325435	    -10.89519144	      5.46583307	    -12.75179127	     20.66810874	     18.39503356	    -17.25904572	    -11.83194789	     -9.10602709	      0.00000000	      0.00000000	      0.00000000	      0.00000000	      0.00000000	      0.00000000	      0.80894140	    -15.12742308	      5.91638138	     24.09104488
      0.03333333	      2.22452839	    -10.80636681	    -16.40192322	     -0.80766539	      0.98856907	      0.34098603	    -27.50386139	      7.24581999	     18.62062746	    -11.14181584	      5.37680465	    -12.74812834	     20.67027162	     18.23213711	    -17.14142632	    -11.81555450	     -9.17299917	      0.00000000	      0.00000000	      0.00000000	      0.00000000	      0.00000000	      0.00000000	      0.74060884	    -14.95663063	      5.98483899	     24.09265146
      0.03750000	      2.12033056	    -10.75503715	    -16.46144844	     -0.80172982	      0.98811597	      0.34050014	    -27.31892046	      7.16300084	     18.63416820	    -11.80874908	      4.85556864	    -12.80487045	     20.65783127	     17.97943890	    -17.00947127	    -11.77863638	     -9.02989097	      0.00000000	      0.00000000	      0.00000000	      0.00000000	      0.00000000	      0.00000000	      0.34148346	    -14.80598624	      5.92968616	     24.04719354
      0.04166667	      1.71361795	    -10.60338985	    -16.56839896	     -0.79540748	      0.98726772	      0.34006533	    -26.85135145	      7.03226219	     18.60345602	    -12.32915935	      3.68690632	    -13.44799281	     22.96244954	     18.11887700	    -16.86180981	    -11.89926249	     -9.05667133	      0.00000000	      0.00000000	      0.00000000	      0.00000000	      0.00000000	      0.00000000	      0.14341676	    -14.20690597	      5.89014261	     24.12165872
      0.04583333	      1.68220202	    -10.54942055	    -16.50604810	     -0.78929864	      0.98691175	      0.33941190	    -26.83275020	      6.95062932	     18.68314867	    -12.79356170	      3.42503772	    -13.42487781	     22.94798175	     17.87844053	    -16.68201209	    -11.79094521	     -9.05178457	      0.00000000	      0.00000000	      0.00000000	      0.00000000	      0.00000000	      0.00000000	     -0.05502641	    -14.09077856	      5.83580753	     24.06658778
      0.05000000	      1.65670242	    -10.43551852	    -16.48922249	     -0.78312734	      0.98665504	      0.33875828	    -26.70959800	      6.79055043	     18.55332090	    -13.40975192	      2.91087402	    -13.44330944	     22.92218586	     17.62506127	    -16.44449009	    -11.85383915	     -9.06123138	      0.00000000	      0.00000000	      0.00000000	      0.00000000	      0.00000000	      0.00000000	     -0.32434411	    -13.95624185	      5.73382840	     23.95843568
      0.05416667	      1.62367805	    -10.28751913	    -16.43930523	     -0.77688862	      0.98640462	      0.33812447	    -26.59212229	      6.62109117	     18.48935482	    -13.98045567	      2.45382978	    -13.44774155	     22.93224798	     17.40490809	    -16.17255283	    -11.85209828	     -9.10363708	      0.00000000	      0.00000000	      0.00000000	      0.00000000	      0.00000000	      0.00000000	     -0.51201945	    -13.78743352	      5.58232481	     23.85877377
